<?xml version="1.0" encoding="utf-8"?>
<!-- Generator: Adobe Illustrator 23.0.4, SVG Export Plug-In . SVG Version: 6.00 Build 0)  -->
<svg version="1.1" id="Layer_1" xmlns="http://www.w3.org/2000/svg" xmlns:xlink="http://www.w3.org/1999/xlink" x="0px" y="0px"
	 viewBox="0 0 550 550" style="enable-background:new 0 0 550 550;" xml:space="preserve">
<style type="text/css">
	.st0{fill:#3D3D3D;}
</style>
<g>
	<path class="st0" d="M177.08,375.94c-10.86,9.84-20.82,18.65-30.5,27.76c-3.67,3.46-7.55,4.79-12.55,4.77
		c-34.83-0.15-69.66-0.07-104.49-0.08c-8.65,0-10.62-1.95-10.62-10.52c-0.01-28.83-0.01-57.66,0.01-86.49
		c0.01-7.83,2.21-10.01,10.16-10.07c8.5-0.06,17-0.2,25.49,0.06c3.55,0.11,5.77-1.15,8.03-3.77c25.63-29.61,51.47-59.03,76.98-88.73
		c4.49-5.23,8.82-7.22,15.58-5.07c6.94,2.2,14.19,3.42,21.89,5.2c0-2.98,0-5.6,0-8.22c0-55.33-0.01-110.65,0.01-165.98
		c0-9.21,1.88-11.05,11.15-11.06c107.99-0.01,215.98-0.01,323.97,0c9.01,0,10.87,1.86,10.88,10.74c0,125.82-0.02,251.64,0.1,377.46
		c0.01,5.22-1.41,8.95-5.19,12.69c-32.32,32.02-64.46,64.22-96.54,96.48c-3.19,3.21-6.52,4.6-11.02,4.59
		c-74.16-0.09-148.32-0.06-222.48-0.07c-8.77,0-10.88-2.18-10.87-10.95c0.01-43.99,0-87.99,0.01-131.98
		C177.08,380.87,177.08,379.06,177.08,375.94z M507.32,408.38c0-123.27,0-246,0-368.99c-104.84,0-209.4,0-314.18,0
		c0,67.98,0,135.68,0,203.73c7.87,0,15.35-0.12,22.83,0.03c9.84,0.2,18.24,3.92,24.57,11.48c8.58,10.24,10.53,21.96,5.12,34.11
		c-5.46,12.25-15.33,19.06-28.99,19.48c-7.78,0.24-15.58,0.04-23.63,0.04c0,67.52,0,134.41,0,201.48c71.03,0,141.76,0,212.96,0
		c0-2.4,0-4.54,0-6.67c0-27.83,0-55.67,0-83.5c0-9.23,1.91-11.18,11.07-11.18c27.83-0.01,55.67-0.01,83.5-0.01
		C502.7,408.38,504.84,408.38,507.32,408.38z M34.77,316.94c0,25.71,0,50.73,0,75.65c0.77,0.17,1.09,0.31,1.41,0.31
		c32.15,0.02,64.3,0.07,96.45-0.05c1.75-0.01,3.8-1.07,5.19-2.26c9.76-8.32,18.96-17.36,29.19-25.04
		c8.01-6.01,11.09-12.76,10.27-22.7c-0.91-11.04-0.21-22.22-0.21-33.29c-4.67-1.29-7.45-0.07-10.1,3.61
		c-9.35,12.97-19.1,25.64-28.69,38.43c-2.6,3.46-5.05,7.05-7.84,10.35c-2.87,3.37-7.23,3.75-10.81,1.38
		c-4.02-2.67-4.14-6.11-1.97-9.97c0.9-1.59,1.83-3.18,2.93-4.63c12.57-16.58,25.3-33.05,37.7-49.76c2.78-3.75,5.75-5.4,10.4-5.34
		c15.32,0.2,30.65,0.14,45.98,0.05c9.1-0.05,15.01-4.13,17.27-11.58c3.63-11.98-3.81-22.4-16.47-22.53
		c-19.16-0.2-38.31-0.06-57.47-0.09c-2.99-0.01-6.23,0.51-8.9-0.46c-2.3-0.83-5.15-3.19-5.59-5.32c-0.5-2.43,0.82-5.83,2.48-7.9
		c1.13-1.41,4.2-1.69,6.41-1.74c8.42-0.19,16.84-0.08,25.28-0.08c0-6.66,0-12.6,0-18.62c-7.01-1.74-13.82-3.28-20.54-5.15
		c-3.43-0.96-5.63-0.3-8.07,2.53c-25.35,29.39-50.94,58.57-76.26,87.98c-3.8,4.42-7.78,6.66-13.72,6.34
		C51.12,316.63,43.12,316.94,34.77,316.94z M421.99,425.03c0,24.85,0,49.16,0,71.8c23.75-23.75,48.09-48.09,71.79-71.8
		C470.8,425.03,446.53,425.03,421.99,425.03z"/>
	<path class="st0" d="M312.92,146.01c36.18-8.77,70.73,3.95,91.29,33.41c11.28,16.15,16.2,34.26,14.67,53.85
		c-1.53,19.59-9.61,36.5-23.19,51.28c3.85,3.69,7.28,7.35,11.13,10.49c1.46,1.19,3.88,1.68,5.86,1.69c19,0.12,37.99,0.11,56.99,0.05
		c3.98-0.01,7.3,0.8,8.78,5c1.81,5.12-1.29,10.23-6.76,10.27c-22.33,0.16-44.66,0.15-66.98-0.08c-1.99-0.02-4.31-1.65-5.89-3.14
		c-4.84-4.56-9.39-9.43-14.12-14.24c-35.04,22.31-69.88,22.92-102.15-3.21c-28.82-23.33-36.75-54.63-26.7-90.89
		c-8.58-1.86-17.13-3.73-25.69-5.56c-8.83-1.89-10.91-5.44-7.62-13.86c13.23-33.92,36.37-58.04,70.71-70.9
		c8.36-3.13,12.13-0.9,13.92,7.76C309.08,127.17,310.96,136.43,312.92,146.01z M315.98,162.25c2.75,13.36,5.51,26.37,8.07,39.42
		c1.6,8.18-2.93,12.49-11.04,10.78c-12.7-2.68-25.42-5.29-38.09-8.09c-2.8-0.62-4.47-0.36-4.95,2.83
		c-0.87,5.75-2.52,11.45-2.74,17.22c-1.59,41.15,33.96,74.53,74.9,70.39c11.14-1.13,21.48-4.81,31.74-11.88
		c-1.99-1.55-3.57-2.56-4.87-3.83c-5.71-5.6-11.38-11.25-16.99-16.95c-4.06-4.12-4.42-8.48-1.13-11.85
		c3.35-3.43,7.69-3.15,11.82,0.82c1.32,1.27,2.6,2.59,3.88,3.9c6.03,6.13,12.05,12.27,18.06,18.4c22.04-22.1,25.04-57.4,7.71-83.98
		C375.91,164.2,342.39,152.14,315.98,162.25z M239.85,181.18c22.61,4.67,44.74,9.23,67.52,13.93c-4.75-22.98-9.31-44.99-13.95-67.45
		C268.6,138.89,250.67,155.89,239.85,181.18z"/>
	<path class="st0" d="M299.98,431.79c-22.97,0-45.93,0.02-68.9-0.01c-6.2-0.01-9.22-2.27-9.71-7.03c-0.53-5.24,2.87-8.58,9.1-8.61
		c15.14-0.07,30.29-0.03,45.43-0.03c30.79,0,61.57-0.01,92.36,0.04c1.96,0,4.05,0.16,5.84,0.85c3.51,1.35,5.59,4.5,4.47,7.9
		c-0.84,2.56-3.53,4.72-5.83,6.48c-1.09,0.83-3.21,0.4-4.87,0.4C345.25,431.8,322.62,431.79,299.98,431.79z"/>
	<path class="st0" d="M300.25,388.18c-23.16,0-46.32-0.02-69.48,0.02c-3.51,0.01-6.72-0.38-8.53-3.88
		c-2.95-5.72,0.76-11.42,7.64-11.45c16.33-0.09,32.66-0.04,48.99-0.04c29.83,0,59.65,0,89.48,0.01c1,0,2-0.04,3,0.04
		c4.48,0.38,7.54,3.55,7.53,7.76c-0.02,4.32-2.94,7.44-7.64,7.48c-15.33,0.13-30.66,0.08-45.99,0.09c-8.33,0.01-16.66,0-24.99,0
		C300.25,388.19,300.25,388.19,300.25,388.18z"/>
	<path class="st0" d="M300.06,475.08c-23.32,0-46.63,0.03-69.95-0.02c-6.84-0.02-10.45-4.92-8.15-10.78
		c1.45-3.69,4.46-4.59,8.05-4.59c14.32,0.01,28.65-0.02,42.97-0.02c31.64,0,63.29,0.01,94.93,0.02c0.67,0,1.33-0.01,2,0.01
		c5.31,0.2,9.03,3.55,8.94,8.05c-0.09,4.54-3.31,7.3-8.85,7.31C346.69,475.1,323.37,475.08,300.06,475.08z"/>
	<path class="st0" d="M268.83,67.92c13.15,0,26.29-0.04,39.44,0.01c6.21,0.02,9.34,2.76,9.25,7.88c-0.08,4.85-3.19,7.5-9.12,7.51
		c-26.13,0.04-52.26,0.05-78.38,0c-5.81-0.01-9.39-3.24-9.34-8.07c0.05-4.57,2.96-7.28,8.21-7.31
		C242.21,67.88,255.52,67.92,268.83,67.92z"/>
	<path class="st0" d="M343.33,67.94c3.33,0.01,6.66-0.1,9.97,0.03c4.73,0.19,7.56,3.01,7.67,7.41c0.11,4.52-2.5,7.66-7.19,7.82
		c-6.81,0.24-13.64,0.22-20.44,0c-4.37-0.15-7.38-3.71-7.27-7.91c0.11-4.15,2.9-6.99,7.28-7.31c1.65-0.12,3.32-0.04,4.99-0.04
		C340,67.93,341.67,67.93,343.33,67.94z"/>
	<path class="st0" d="M379.16,67.01c2.72,1.23,6.1,1.82,8.01,3.82c4.15,4.35,1.11,11.54-4.84,12.35c-1.14,0.16-2.31,0.13-3.47,0.13
		c-6.31-0.01-9.91-2.82-10-7.79C368.77,70.39,371.97,67.94,379.16,67.01z"/>
</g>
</svg>
