<?xml version="1.0" encoding="utf-8"?>
<!-- Generator: Adobe Illustrator 23.0.4, SVG Export Plug-In . SVG Version: 6.00 Build 0)  -->
<svg version="1.1" id="Layer_1" xmlns="http://www.w3.org/2000/svg" xmlns:xlink="http://www.w3.org/1999/xlink" x="0px" y="0px"
	 viewBox="0 0 550 550" style="enable-background:new 0 0 550 550;" xml:space="preserve">
<style type="text/css">
	.st0{fill:#3D3D3D;}
</style>
<g>
	<path class="st0" d="M223.08,425.79c-8.33,0-15.97,0.03-23.6-0.01c-7.12-0.04-9.64-2.48-9.64-9.59
		c-0.04-41.64-0.18-83.29,0.02-124.93c0.12-24.52,14.67-44.48,36.05-50.03c3.98-1.03,8.21-1.53,12.33-1.56
		c23.99-0.14,47.98,0.34,71.96-0.18c29.82-0.64,49.12,24.49,49.8,47.74c0.73,24.8,0.29,49.63,0.32,74.45
		c0.02,18.16,0.01,36.31-0.03,54.47c-0.02,7.11-2.47,9.56-9.6,9.61c-7.45,0.05-14.9,0.01-22.78,0.01c0,2.45,0,4.25,0,6.05
		c-0.01,23.32,0.01,46.64-0.03,69.96c-0.02,14.81-9.06,23.99-23.97,24.08c-18.99,0.11-37.98,0.11-56.97,0
		c-15.22-0.09-23.84-8.81-23.87-23.94c-0.04-23.32-0.01-46.64-0.01-69.96C223.08,430.16,223.08,428.34,223.08,425.79z
		 M344.93,410.99c0-5.44,0-10.4,0-15.37c0.01-34.49-0.03-68.98,0.03-103.48c0.04-19.63-13.44-39.07-37.69-37.92
		c-23.11,1.1-46.31,0.32-69.47,0.18c-9.92-0.06-17.71,3.98-23.96,11.32c-6.54,7.68-9.4,16.76-9.41,26.75
		c-0.03,37.99-0.02,75.98,0,113.97c0,1.44,0.22,2.88,0.35,4.38c5.99,0,11.55,0,17.46,0c0-12.52,0-24.67,0-36.82
		c0-8.5-0.18-17,0.07-25.49c0.2-6.65,7.07-10.56,11.81-6.52c2.15,1.83,3.61,5.66,3.64,8.6c0.28,24.99,0.17,49.99,0.17,74.98
		c0,25.99,0.04,51.99-0.02,77.98c-0.01,4.14,1.16,7.77,5.61,8.04c7.73,0.47,15.5,0.13,23.71,0.13c0-2.27,0-4.07,0-5.87
		c0-26.49-0.01-52.99,0.02-79.48c0-1.98,0.01-4.04,0.55-5.92c1.05-3.64,3.96-5.98,7.48-5.12c2.63,0.64,5.17,3.02,6.96,5.26
		c1.03,1.29,0.64,3.83,0.64,5.81c0.03,26.49,0.02,52.99,0.02,79.48c0,1.92,0,3.84,0,5.65c1.3,0.21,1.79,0.35,2.28,0.35
		c5.5,0.03,11,0.08,16.5,0.05c7.86-0.04,9.78-1.92,9.79-9.73c0.02-22.99,0-45.99,0-68.99c0-27.33-0.04-54.65,0.05-81.98
		c0.01-2.41,0.1-5.64,1.55-7.02c2-1.9,5.47-3.54,8.07-3.24c4.3,0.5,5.94,4.2,5.93,8.54c-0.05,18.66-0.02,37.33-0.02,55.99
		c0,1.76,0,3.51,0,5.47C333.21,410.99,338.66,410.99,344.93,410.99z"/>
	<path class="st0" d="M26.92,126.27c0.04-52.68,43.46-96,96.17-95.95c52.71,0.05,96.12,43.48,96.05,96.09
		c-0.07,53.49-43.13,96.24-96.86,96.14C70.1,222.45,26.88,178.82,26.92,126.27z M56.49,174.89c11.59-16.95,27.55-25.48,48.42-26.19
		C70.37,130.44,73.22,97.28,86.8,80.89c16.63-20.08,47.07-22.28,65.68-4.17c11.08,10.79,15.18,24.16,12.42,39.26
		c-2.78,15.2-12.13,25.6-26.03,32.42c20.4,1.05,36.18,9.86,47.63,26.42c23.82-28.99,24.11-76.42-7.13-106.78
		C147.41,36.98,97.34,37.2,65.38,68.65C34.33,99.21,30.92,143.02,56.49,174.89z M176.27,186.6c-7.27-13.4-18.44-21.24-33.75-21.97
		c-12.96-0.62-26-0.62-38.96,0c-15.32,0.73-26.5,8.55-33.8,21.93C95.66,213.54,149.92,213.56,176.27,186.6z M123.31,79.22
		c-16.18-0.08-28.95,12.48-29.04,28.54c-0.09,15.64,12.83,28.68,28.45,28.72c16.09,0.04,28.91-12.59,29.05-28.63
		C151.92,92.18,139.11,79.3,123.31,79.22z"/>
	<path class="st0" d="M427.54,30.32c52.54,0.06,95.8,43.67,95.68,96.44c-0.12,52.63-43.64,95.88-96.37,95.78
		c-52.93-0.1-95.93-43.22-95.86-96.13C331.06,73.42,374.42,30.27,427.54,30.32z M411.38,148.74
		c-23.45-15.02-31.46-31.17-26.36-51.73c4.34-17.5,20.02-31.3,36.96-32.51c19.62-1.4,37.09,8.99,44.45,26.62
		c4.65,11.13,4.57,22.36-0.02,33.52c-4.53,11-12.76,18.44-23.41,23.72c20.38,1.09,36.15,9.89,47.6,26.45
		c24.01-29.29,23.95-76.48-7.05-106.71c-31.73-30.94-80.63-30.94-112.57-0.04c-31.56,30.52-32.51,76.78-8.11,106.81
		C374.29,158.23,390.11,149.43,411.38,148.74z M373.86,186.61c31.22,28.34,79.59,25.83,106.53-0.07
		c-7.38-13.3-18.48-21.22-33.82-21.92c-12.96-0.59-25.98-0.61-38.94,0.01C392.32,165.36,381.15,173.18,373.86,186.61z
		 M427.11,136.47c16.06,0.07,28.59-12.24,28.76-28.26c0.17-16.04-12.59-28.96-28.65-29c-15.9-0.04-28.6,12.42-28.86,28.31
		C398.09,123.33,411.06,136.4,427.11,136.47z"/>
	<path class="st0" d="M461.18,283.89c0,15.01,0,28.45,0,41.89c0,29.14,0.01,58.29,0,87.43c0,8-2.34,10.28-10.47,10.29
		c-17.82,0.02-35.64,0.04-53.46,0c-5.46-0.01-9.05-3.28-8.97-7.9c0.08-4.39,3.51-7.33,8.82-7.54c1.16-0.04,2.33-0.01,3.5-0.01
		c13.32,0,26.65,0,39.97,0c1.79,0,3.57,0,5.54,0c0-41.5,0-82.34,0-124.43c-6.62,7.08-12.46,13.35-18.32,19.59
		c-5.36,5.71-9.45,6.66-13.14,3.12c-4.01-3.85-3.42-7.97,1.96-13.71c9.68-10.33,19.35-20.66,29.03-30.99
		c6.25-6.67,9.47-6.69,15.56-0.17c9.32,9.98,18.66,19.94,27.99,29.91c1.25,1.34,2.58,2.62,3.68,4.08c2.65,3.52,2.44,8.49-0.68,10.83
		c-3.51,2.64-7.35,2.52-10.46-0.54c-4.75-4.67-9.15-9.68-13.7-14.55C466.12,289.15,464.19,287.1,461.18,283.89z"/>
	<path class="st0" d="M88.95,283.92c-7.23,7.75-13.45,14.41-19.66,21.08c-2.66,2.85-6.08,4.16-9.42,2.26
		c-1.98-1.13-3.84-3.85-4.17-6.09c-0.3-2.09,0.97-4.95,2.46-6.67c10.05-11.56,20.3-22.96,30.59-34.31c4.08-4.5,8.14-4.8,12.42-0.34
		c11.42,11.88,22.61,23.98,33.76,36.12c2.76,3,2.13,8.31-0.77,10.86c-2.94,2.57-7.31,2.1-10.65-1.6
		c-5.35-5.93-10.49-12.06-15.66-18.16c-0.83-0.97-1.35-2.2-2.01-3.31c-0.41,0.31-0.81,0.62-1.22,0.93c0,40.86,0,81.72,0,123.37
		c2.05,0,3.98,0,5.91,0c14.32,0,28.65-0.06,42.97,0.02c6.34,0.03,9.7,3.3,8.94,8.59c-0.63,4.4-3.34,6.82-7.83,6.83
		c-19.15,0.05-38.31,0.09-57.46-0.01c-5.77-0.03-8.19-3.19-8.19-10.07c-0.01-34.31,0-68.62,0.01-102.94
		C88.95,302.16,88.95,293.85,88.95,283.92z"/>
	<path class="st0" d="M327.05,183.75c0.03,28.04-23.27,51.13-51.78,51.31c-28.55,0.18-52.2-23.11-52.18-51.41
		c0.01-27.9,23.68-51.14,52.03-51.08C303.54,132.62,327.02,155.76,327.05,183.75z M237.95,183.29
		c-0.24,20.16,16.25,36.81,36.7,37.06c20.17,0.25,37.26-16.02,37.55-35.73c0.3-20-16.04-36.89-35.98-37.19
		C255.16,147.12,238.19,163.02,237.95,183.29z"/>
</g>
</svg>
