<?xml version="1.0" encoding="utf-8"?>
<!-- Generator: Adobe Illustrator 23.0.4, SVG Export Plug-In . SVG Version: 6.00 Build 0)  -->
<svg version="1.1" id="Layer_1" xmlns="http://www.w3.org/2000/svg" xmlns:xlink="http://www.w3.org/1999/xlink" x="0px" y="0px"
	 viewBox="0 0 550 550" style="enable-background:new 0 0 550 550;" xml:space="preserve">
<style type="text/css">
	.st0{fill:#3D3D3D;}
</style>
<g>
	<path class="st0" d="M274.96,220.08c-55.82,0-111.64,0-167.46,0c-9.07,0-10.85-1.74-10.85-10.75c-0.01-58.32-0.01-116.64,0-174.96
		c0-8.53,1.98-10.44,10.68-10.44c111.81,0,223.62,0,335.43,0c8.67,0,10.6,1.89,10.6,10.52c0.01,58.15,0.02,116.31,0,174.46
		c0,9.5-1.65,11.16-10.94,11.16C386.6,220.08,330.78,220.08,274.96,220.08z M388.73,205.11c0.4-1.28,0.74-2.22,0.98-3.18
		c6.01-24.47,20.79-40.07,45.91-44.93c3.44-0.67,3.15-2.68,3.15-5.03c-0.01-16.17-0.01-32.33-0.01-48.5c0-4.97,0-9.94,0-14.87
		c-27.2-5.92-44.05-21.67-49.3-49.06c-76.15,0-152.1,0-228.24,0c-5.75,26.89-21.49,43.78-48.83,49.02c0,22.72,0,45.3,0,67.79
		c26.94,5.83,43.58,21.59,48.86,48.77C237.1,205.11,312.72,205.11,388.73,205.11z M111.41,71.94c13.25-0.65,32.36-16.54,32.3-32.16
		c-10.73,0-21.45,0-32.3,0C111.41,50.7,111.41,61.17,111.41,71.94z M437.53,72.2c0-11.08,0-21.78,0-32.4c-11.08,0-21.73,0-32.47,0
		C408.39,56.31,422.9,70.67,437.53,72.2z M438.75,172.41c-16.54,1.91-32.47,18.82-32.53,31.91c10.69,0,21.37,0,32.25,0
		c0.11-1.66,0.26-2.96,0.27-4.25C438.76,190.95,438.75,181.83,438.75,172.41z M145.01,204.37c-3.77-16.94-19.19-31.58-32.71-31.58
		c0,10.42,0,20.84,0,31.58C123.23,204.37,133.93,204.37,145.01,204.37z"/>
	<path class="st0" d="M93.7,306.36c2.43-3.66,4.23-7.05,6.66-9.9c10.81-12.69,29.74-13.23,40.29-0.33
		c16.66,20.37,32.61,41.33,48.7,62.16c4.21,5.45,5.59,12.05,5.61,18.84c0.06,20.5,0.03,41,0.04,61.5c0,2.16,0,4.32,0,7.32
		c3.01,0,5.76-0.04,8.51,0.01c6.92,0.12,10.25,3.25,10.27,10.04c0.07,21.33,0.07,42.67,0,64c-0.02,6.23-2.71,8.92-8.84,8.93
		c-43,0.04-86,0.04-129,0c-6.18-0.01-8.84-2.68-8.86-8.87c-0.06-21.33-0.07-42.67,0-64c0.02-6.78,3.41-10,10.24-10.1
		c3.64-0.05,7.27-0.01,11.39-0.01c0.28-14.18,1.01-27.95-2.75-41.44c-0.47-1.69-1.68-3.22-2.75-4.68
		c-16.67-22.9-33.33-45.79-50.08-68.63c-3.68-5.02-5.62-10.42-5.61-16.69c0.07-34.83,0.04-69.66,0.02-104.5
		c-0.01-11.78,5.05-20.63,15.57-25.86c9.66-4.8,19.16-3.63,27.76,2.79c7.59,5.66,11.06,13.5,11.05,22.95
		c-0.02,25.5,0.11,51-0.11,76.5c-0.04,4.84,1.05,8.63,4.61,11.92C88.97,300.65,91.11,303.45,93.7,306.36z M104.25,446.46
		c25.52,0,50.12,0,74.93,0c0.18-1.04,0.43-1.83,0.43-2.62c0.02-22.16,0.18-44.33-0.18-66.49c-0.06-3.72-1.59-8.05-3.86-11.01
		c-15.39-20.1-31.12-39.95-46.83-59.8c-3.43-4.33-8.92-5.26-13.49-2.75c-8.63,4.72-10.93,15.44-4.87,23.11
		c2.79,3.53,5.85,6.84,8.65,10.35c2.98,3.73,2.54,8.05-0.96,11.09c-3.41,2.97-7.78,2.22-11.7-2.29
		c-12.04-13.82-23.91-27.78-36.04-41.52c-3.42-3.87-4.85-7.95-4.81-13.12c0.18-26.83,0.23-53.66-0.09-80.49
		c-0.04-3.64-1.7-7.82-3.93-10.74c-2.81-3.67-7.4-4.29-11.85-2.33c-5.37,2.36-7.45,6.75-7.45,12.43
		c0.03,33.66-0.1,67.32,0.17,100.98c0.03,3.66,1.5,7.88,3.64,10.88c16.06,22.51,32.34,44.86,48.83,67.05
		c4.44,5.97,7.05,12.47,8,19.62c0.83,6.25,1.15,12.59,1.38,18.9C104.42,433.84,104.25,439.97,104.25,446.46z M83.03,461.65
		c0,17.03,0,33.75,0,50.73c38.42,0,76.5,0,114.78,0c0-17.03,0-33.75,0-50.73C159.42,461.65,121.34,461.65,83.03,461.65z"/>
	<path class="st0" d="M461.5,445.06c3.55,0,6.85-0.05,10.16,0.01c6.61,0.12,10.38,3.66,10.4,10.13c0.07,21.5,0.06,43-0.02,64.5
		c-0.02,5.72-2.58,8.33-8.22,8.34c-43.33,0.05-86.67,0.05-130,0c-5.65-0.01-8.21-2.55-8.24-8.34c-0.1-21.5-0.11-43-0.01-64.5
		c0.03-6.82,3.43-9.97,10.27-10.13c2.49-0.06,4.98-0.01,8.23-0.01c0-2.01,0-3.77,0-5.52c0-20.5,0.05-41-0.02-61.5
		c-0.04-9.2,2.75-17.2,8.64-24.37c14.69-17.9,30.05-35.36,43.45-54.2c13.38-18.81,40.26-18.64,50.56,6.57
		c3.91-4.41,7.78-8.47,11.24-12.87c0.97-1.23,0.98-3.42,0.98-5.17c0.06-26.67,0-53.33,0.06-80c0.02-10.14,4.56-17.98,13.07-23.32
		c17.33-10.89,40.1,1,40.3,21.45c0.36,36.16,0.31,72.33-0.17,108.49c-0.07,5.07-2.61,10.76-5.6,15.04
		c-15.65,22.39-31.69,44.52-47.89,66.51c-4.21,5.72-7.11,11.61-7.17,18.71C461.43,424.68,461.5,434.48,461.5,445.06z M446.38,445.68
		c0-6.69-0.03-13.14,0.01-19.58c0.09-15.66,3.5-29.87,13.59-42.79c15.47-19.8,29.73-40.56,44.23-61.1c1.94-2.75,3.23-6.62,3.25-9.98
		c0.09-23.99-0.25-47.98-0.42-71.98c-0.07-10.66,0.03-21.33-0.1-31.99c-0.07-6.16-4.26-11.07-9.94-12.06
		c-4.92-0.86-10.57,2.27-12.33,7.33c-0.8,2.28-0.87,4.89-0.87,7.36c-0.05,27.16,0.03,54.32-0.12,81.48
		c-0.01,2.68-0.49,6.02-2.09,7.92c-13.07,15.57-26.39,30.92-39.78,46.2c-3.06,3.49-7.8,3.66-10.75,1.01
		c-3.61-3.25-3.82-7.6-0.43-11.48c2.74-3.14,5.72-6.07,8.38-9.27c5.61-6.75,4.5-16.46-2.32-21.72c-6.21-4.79-12.24-3.38-18.24,4.29
		c-14.27,18.24-28.44,36.55-42.84,54.68c-3.62,4.55-5.32,9.35-5.28,15.14c0.13,20.49,0.05,40.99,0.06,61.48
		c0,1.62,0.15,3.25,0.25,5.07C395.93,445.68,420.84,445.68,446.38,445.68z M351.89,511.56c38.8,0,76.87,0,115.03,0
		c0-17.06,0-33.78,0-50.52c-38.47,0-76.54,0-115.03,0c0,1.47,0,2.6,0,3.73C351.89,480.24,351.89,495.72,351.89,511.56z"/>
	<path class="st0" d="M215.2,121.53c0.55-21.06,6.97-41.08,23.55-56.79c22.39-21.22,53.55-20.19,74.84,2.21
		c27.1,28.52,28.26,78.36,2.53,108.1c-25.64,29.62-66.33,26.2-87.8-7.35C219.54,154,215.57,138.92,215.2,121.53z M319.22,122.74
		c-0.31-17.76-5.12-33.49-17.74-46.08c-15.52-15.48-36.8-15.56-52.61-0.43c-24.05,23.02-24.07,69.22-0.03,92.28
		c15.83,15.19,37.05,15.16,52.6-0.32C314.08,155.61,318.88,139.87,319.22,122.74z"/>
	<path class="st0" d="M187.22,486.86c0.08,6.21-4.36,10.89-10.45,11.04c-6.08,0.15-10.85-4.38-11.03-10.48
		c-0.19-6.41,4.44-11.29,10.71-11.31C182.52,476.08,187.14,480.7,187.22,486.86z"/>
	<path class="st0" d="M384.27,487.15c-0.07,5.94-4.9,10.77-10.77,10.75c-6.09-0.02-10.9-5.09-10.72-11.29
		c0.17-5.9,5.17-10.67,11.01-10.5C379.7,476.28,384.33,481.16,384.27,487.15z"/>
	<path class="st0" d="M248.76,145.73c3.05-3.74,5.12-6.28,7.09-8.7c5.58,2.9,10.9,5.66,17.51,9.09c0-7.02,0.11-12.43-0.11-17.83
		c-0.04-0.87-1.39-2.01-2.38-2.44c-2.43-1.06-5.08-1.59-7.5-2.65c-12.82-5.61-15.8-19.71-5.85-29.57c3.02-2.99,7.62-4.37,11.48-6.53
		c1.89-1.06,3.73-2.22,5.35-4.07c1.88-0.49,4.96-2.85,5.67,1.78c0.09,0.58,2.11,0.9,3.25,1.29c5.4,1.85,10.81,3.68,17.06,5.8
		c-2.61,4.07-4.45,6.93-6.3,9.81c-4.62-1.74-9.02-3.39-14.24-5.36c0,6.39-0.11,11.85,0.11,17.29c0.04,0.92,1.32,2.13,2.32,2.61
		c2.84,1.35,5.78,2.55,8.77,3.53c6.47,2.13,10.44,6.18,11.04,13.21c0.65,7.62-1.87,13.97-8.26,18.07
		c-3.94,2.54-8.64,3.91-13.73,6.12c-0.12,0.98-0.37,3.06-0.65,5.37c-1.94,0-3.67,0-6.05,0c1.81-6.44-2.44-6.75-6.81-8.22
		C260.56,152.32,255.08,148.87,248.76,145.73z M279.1,145.17c6.72-1.06,9.65-3.51,9.84-7.87c0.19-4.31-3.1-7.29-9.84-8.8
		C279.1,133.98,279.1,139.41,279.1,145.17z M271.71,97.26c-5.8-0.04-8.87,2.43-9,7.06c-0.13,4.68,3.19,7.72,9,8.23
		C271.71,107.44,271.71,102.35,271.71,97.26z"/>
</g>
</svg>
